<svg width="20" height="20" viewBox="0 0 20 20" fill="none" xmlns="http://www.w3.org/2000/svg">
<g clip-path="url(#clip0_5_267)">
<path d="M15.8307 5.83242V3.33283C15.8307 3.11185 15.7429 2.89993 15.5867 2.74367C15.4304 2.58742 15.2185 2.49963 14.9975 2.49963H4.16597C3.72401 2.49963 3.30016 2.6752 2.98765 2.98771C2.67514 3.30022 2.49957 3.72407 2.49957 4.16603C2.49957 4.60798 2.67514 5.03183 2.98765 5.34434C3.30016 5.65685 3.72401 5.83242 4.16597 5.83242H16.6639C16.8849 5.83242 17.0968 5.9202 17.2531 6.07646C17.4093 6.23271 17.4971 6.44464 17.4971 6.66562V9.9984H14.9975C14.5556 9.9984 14.1317 10.174 13.8192 10.4865C13.5067 10.799 13.3311 11.2228 13.3311 11.6648C13.3311 12.1067 13.5067 12.5306 13.8192 12.8431C14.1317 13.1556 14.5556 13.3312 14.9975 13.3312H17.4971C17.7181 13.3312 17.93 13.2434 18.0863 13.0871C18.2425 12.9309 18.3303 12.719 18.3303 12.498V10.8316C18.3303 10.6106 18.2425 10.3987 18.0863 10.2424C17.93 10.0862 17.7181 9.9984 17.4971 9.9984" fill="#FAFAFA"/>
<path d="M15.8307 5.83242V3.33283C15.8307 3.11185 15.7429 2.89993 15.5867 2.74367C15.4304 2.58742 15.2185 2.49963 14.9975 2.49963H4.16597C3.72401 2.49963 3.30016 2.6752 2.98765 2.98771C2.67514 3.30022 2.49957 3.72407 2.49957 4.16603C2.49957 4.60798 2.67514 5.03183 2.98765 5.34434C3.30016 5.65685 3.72401 5.83242 4.16597 5.83242H16.6639C16.8849 5.83242 17.0968 5.9202 17.2531 6.07646C17.4093 6.23271 17.4971 6.44464 17.4971 6.66561V9.9984M17.4971 9.9984H14.9975C14.5556 9.9984 14.1317 10.174 13.8192 10.4865C13.5067 10.799 13.3311 11.2228 13.3311 11.6648C13.3311 12.1067 13.5067 12.5306 13.8192 12.8431C14.1317 13.1556 14.5556 13.3312 14.9975 13.3312H17.4971C17.7181 13.3312 17.93 13.2434 18.0863 13.0871C18.2425 12.9309 18.3303 12.719 18.3303 12.498V10.8316C18.3303 10.6106 18.2425 10.3987 18.0863 10.2424C17.93 10.0862 17.7181 9.9984 17.4971 9.9984Z" stroke="#FAFAFA" stroke-width="1.66639" stroke-linecap="round" stroke-linejoin="round"/>
<path d="M2.49957 4.16602V15.8308C2.49957 16.2727 2.67514 16.6966 2.98765 17.0091C3.30016 17.3216 3.72401 17.4972 4.16597 17.4972H16.6639C16.8849 17.4972 17.0968 17.4094 17.2531 17.2531C17.4093 17.0969 17.4971 16.8849 17.4971 16.664V13.3312" fill="#FAFAFA"/>
<path d="M2.49957 4.16602V15.8308C2.49957 16.2727 2.67514 16.6966 2.98765 17.0091C3.30016 17.3216 3.72401 17.4972 4.16597 17.4972H16.6639C16.8849 17.4972 17.0968 17.4094 17.2531 17.2531C17.4093 17.0969 17.4971 16.8849 17.4971 16.664V13.3312" stroke="#FAFAFA" stroke-width="1.66639" stroke-linecap="round" stroke-linejoin="round"/>
</g>
<defs>
<clipPath id="clip0_5_267">
<rect width="19.9967" height="19.9967" fill="white"/>
</clipPath>
</defs>
</svg>
