<svg width="20" height="20" viewBox="0 0 20 20" fill="none" xmlns="http://www.w3.org/2000/svg">
<path d="M12.498 17.4972V10.8316C12.498 10.6106 12.4102 10.3987 12.2539 10.2425C12.0977 10.0862 11.8857 9.99841 11.6648 9.99841H8.33198C8.111 9.99841 7.89907 10.0862 7.74282 10.2425C7.58656 10.3987 7.49878 10.6106 7.49878 10.8316V17.4972" stroke="#A1A1A1" stroke-width="1.66639" stroke-linecap="round" stroke-linejoin="round"/>
<path d="M2.49957 8.33198C2.49951 8.08958 2.55234 7.85008 2.65437 7.6302C2.7564 7.41031 2.90517 7.21533 3.09031 7.05886L8.92268 2.05968C9.22345 1.80548 9.60453 1.66602 9.99834 1.66602C10.3921 1.66602 10.7732 1.80548 11.074 2.05968L16.9064 7.05886C17.0915 7.21533 17.2403 7.41031 17.3423 7.6302C17.4443 7.85008 17.4972 8.08958 17.4971 8.33198V15.8307C17.4971 16.2727 17.3215 16.6966 17.009 17.0091C16.6965 17.3216 16.2727 17.4971 15.8307 17.4971H4.16597C3.72401 17.4971 3.30016 17.3216 2.98765 17.0091C2.67514 16.6966 2.49957 16.2727 2.49957 15.8307V8.33198Z" stroke="#A1A1A1" stroke-width="1.66639" stroke-linecap="round" stroke-linejoin="round"/>
</svg>
