<svg width="16" height="16" viewBox="0 0 16 16" fill="none" xmlns="http://www.w3.org/2000/svg">
<g clip-path="url(#clip0_5_474)">
<path d="M7.68206 1.52975C7.71127 1.47074 7.7564 1.42106 7.81234 1.38633C7.86829 1.3516 7.93283 1.33319 7.99868 1.33319C8.06453 1.33319 8.12907 1.3516 8.18501 1.38633C8.24096 1.42106 8.28608 1.47074 8.31529 1.52975L9.85504 4.64857C9.95647 4.85385 10.1062 5.03145 10.2914 5.16612C10.4766 5.3008 10.6917 5.38853 10.9182 5.42178L14.3616 5.9257C14.4269 5.93515 14.4882 5.96267 14.5386 6.00515C14.589 6.04763 14.6265 6.10337 14.6469 6.16606C14.6673 6.22876 14.6698 6.29591 14.654 6.35992C14.6382 6.42393 14.6048 6.48224 14.5576 6.52826L12.0673 8.9532C11.9031 9.11324 11.7802 9.31079 11.7093 9.52886C11.6383 9.74692 11.6215 9.97896 11.6601 10.205L12.248 13.6311C12.2595 13.6963 12.2525 13.7634 12.2276 13.8249C12.2028 13.8863 12.1613 13.9395 12.1077 13.9784C12.0541 14.0173 11.9907 14.0404 11.9246 14.045C11.8585 14.0496 11.7925 14.0355 11.7341 14.0044L8.6559 12.386C8.45308 12.2795 8.22743 12.2238 7.99834 12.2238C7.76926 12.2238 7.54361 12.2795 7.34079 12.386L4.26329 14.0044C4.20486 14.0353 4.13891 14.0492 4.07296 14.0445C4.00701 14.0398 3.94369 14.0167 3.89022 13.9779C3.83674 13.939 3.79526 13.8858 3.77048 13.8245C3.7457 13.7632 3.73862 13.6962 3.75004 13.6311L4.33728 10.2057C4.37607 9.97952 4.35927 9.74733 4.28831 9.52914C4.21736 9.31094 4.09439 9.11328 3.93001 8.9532L1.43976 6.52893C1.39216 6.48296 1.35843 6.42455 1.34242 6.36034C1.3264 6.29614 1.32873 6.22873 1.34916 6.16579C1.36958 6.10284 1.40727 6.04691 1.45794 6.00434C1.5086 5.96177 1.57021 5.93429 1.63573 5.92503L5.07849 5.42178C5.30529 5.38879 5.52068 5.30117 5.70611 5.16648C5.89154 5.03179 6.04147 4.85405 6.14298 4.64857L7.68206 1.52975Z" stroke="#A1A1A1" stroke-width="1.33311" stroke-linecap="round" stroke-linejoin="round"/>
</g>
<defs>
<clipPath id="clip0_5_474">
<rect width="15.9974" height="15.9974" fill="white"/>
</clipPath>
</defs>
</svg>
